<?xml version="1.0" encoding="UTF-8"?>
<svg version="1.1" xmlns="http://www.w3.org/2000/svg" width="4596" height="3647">
<path d="M0 0 C1.54144432 0.00040031 1.54144432 0.00040031 3.11402893 0.00080872 C35.05458364 0.01120891 66.92125402 0.23994785 98.8125 2.1875 C99.90715576 2.25302063 101.00181152 2.31854126 102.12963867 2.38604736 C215.36889687 9.19549503 327.64429893 25.45676626 523.8125 76.1875 C524.72523682 76.46209045 525.63797363 76.73668091 526.57836914 77.01959229 C568.46392712 89.63688632 609.98432713 103.46675414 650.8125 119.1875 C651.55830322 119.47455811 652.30410645 119.76161621 653.07250977 120.05737305 C695.96635415 136.59339238 738.18208781 154.6880465 779.8125 174.1875 C780.73417969 174.61869141 781.65585938 175.04988281 782.60546875 175.49414062 C797.11681961 182.31007815 811.46907851 189.45421661 825.81854248 196.60290527 C827.9008147 197.64002664 829.98367798 198.67596239 832.06719971 199.71057129 C845.62822609 206.44947108 859.00431958 213.45770785 872.2578125 220.78279114 C875.92111799 222.79707965 879.60087554 224.78048568 883.28059387 226.7645874 C893.84754734 232.46276643 904.22936966 238.4514842 914.578125 244.53515625 C920.01303535 247.72855478 925.4756328 250.87162523 930.94482422 254.00585938 C939.49770737 258.91164533 948.04077115 263.83011323 956.4375 269 C957.10072266 269.40250977 957.76394531 269.80501953 958.44726562 270.21972656 C959.93923702 271.1524134 961.38291794 272.16174248 962.8125 273.1875 C962.8125 273.8475 962.8125 274.5075 962.8125 275.1875 C963.54645996 275.46045898 964.28041992 275.73341797 965.03662109 276.01464844 C967.67076314 277.12761399 969.85019203 278.37375584 972.2265625 279.953125 C973.06058594 280.50637451 973.89460938 281.05962402 974.75390625 281.62963867 C975.63949219 282.22623291 976.52507813 282.82282715 977.4375 283.4375 C978.36175781 284.05794189 979.28601562 284.67838379 980.23828125 285.31762695 C993.13247458 294.03725923 1005.76881123 303.10027614 1017.51489258 313.32910156 C1019.65113626 315.18886315 1021.80320258 317.02620957 1023.97607422 318.84301758 C1032.13681646 325.69136757 1039.83190123 332.89264563 1047.3371582 340.45141602 C1049.13465805 342.25971608 1050.94272316 344.05695977 1052.75195312 345.85351562 C1059.56650093 352.66033408 1065.83087889 359.6303096 1071.8125 367.1875 C1072.73541303 368.27772211 1073.66506762 369.36232632 1074.60546875 370.4375 C1097.84214865 397.12367072 1115.91069671 427.71136511 1131.8125 459.1875 C1132.22387207 459.99944824 1132.63524414 460.81139648 1133.05908203 461.64794922 C1156.66404094 508.6498502 1169.67720066 561.03045025 1174.8125 613.1875 C1174.90821289 614.08509033 1175.00392578 614.98268066 1175.10253906 615.9074707 C1176.20594698 627.73548946 1176.05641105 639.63159493 1176.0625 651.5 C1176.06317474 652.68079132 1176.06384949 653.86158264 1176.06454468 655.07815552 C1176.04742293 673.9739996 1175.40780642 692.45335665 1172.8125 711.1875 C1172.65152832 712.39100098 1172.49055664 713.59450195 1172.32470703 714.83447266 C1166.57952637 756.48565274 1154.72686692 798.13041011 1136.8125 836.1875 C1136.35407715 837.18217285 1135.8956543 838.1768457 1135.42333984 839.20166016 C1118.4141554 876.10381971 1096.81964503 910.74381705 1069.8125 941.1875 C1068.58274445 942.60365551 1067.35348098 944.02023869 1066.125 945.4375 C1065.02200602 946.68853489 1063.91764995 947.93836925 1062.8125 949.1875 C1062.17860352 949.90623291 1061.54470703 950.62496582 1060.89160156 951.36547852 C1055.21228068 957.74590987 1049.3023381 963.84895736 1043.25 969.875 C1042.35603516 970.77283203 1041.46207031 971.67066406 1040.54101562 972.59570312 C1035.46011646 977.66916864 1030.27959252 982.53431795 1024.8125 987.1875 C1023.84828125 988.033125 1022.8840625 988.87875 1021.890625 989.75 C952.92614211 1049.18900183 862.69816781 1087.43094862 771.8125 1094.1875 C770.69762207 1094.27362549 769.58274414 1094.35975098 768.43408203 1094.44848633 C757.43213087 1095.22446869 746.46444325 1095.38843369 735.4375 1095.375 C734.5153067 1095.37439575 733.5931134 1095.3737915 732.64297485 1095.37316895 C717.61315208 1095.34654479 702.75814551 1094.90840036 687.8125 1093.1875 C686.68199219 1093.05859375 685.55148438 1092.9296875 684.38671875 1092.796875 C621.11242868 1085.3284342 560.57662374 1064.72727118 505.8125 1032.1875 C504.76835937 1031.5682666 503.72421875 1030.9490332 502.6484375 1030.31103516 C498.66472778 1027.94774835 494.68134513 1025.5839098 490.69979858 1023.21697998 C429.62611663 986.91694164 366.10094975 956.95576521 298.8125 934.1875 C297.61641113 933.78192871 296.42032227 933.37635742 295.18798828 932.95849609 C251.05189305 918.11379279 205.68003239 907.10375444 159.8125 899.1875 C159.04951599 899.05514954 158.28653198 898.92279907 157.50042725 898.78643799 C129.08728842 893.87898001 100.53029237 890.69670809 71.8125 888.1875 C70.63599884 888.08245148 70.63599884 888.08245148 69.43572998 887.97528076 C-12.40275629 880.71961949 -96.34286257 887.47174142 -276.1875 928.1875 C-276.87420776 928.40772827 -277.56091553 928.62795654 -278.26843262 928.8548584 C-342.69029 949.54150931 -405.78021395 975.8273394 -464.1875 1010.1875 C-465.25226563 1010.80834473 -466.31703125 1011.42918945 -467.4140625 1012.06884766 C-501.32656671 1031.84626929 -533.93634991 1053.41599244 -565.1875 1077.1875 C-566.70150391 1078.33412109 -566.70150391 1078.33412109 -568.24609375 1079.50390625 C-581.00598651 1089.21110833 -593.38696142 1099.39383541 -605.57226562 1109.81054688 C-607.23584543 1111.22871346 -608.90645876 1112.63825317 -610.578125 1114.046875 C-617.45478203 1119.86290494 -624.14117113 1125.84171289 -630.68701172 1132.02856445 C-633.92123452 1135.08482763 -637.19492668 1138.07535474 -640.53515625 1141.015625 C-647.79298597 1147.52784387 -654.62714721 1154.47814209 -661.51098633 1161.38061523 C-663.8766419 1163.75164563 -666.24761514 1166.11726422 -668.61914062 1168.48242188 C-670.14615417 1170.01009604 -671.67285757 1171.53808028 -673.19921875 1173.06640625 C-673.89730148 1173.76246475 -674.59538422 1174.45852325 -675.31462097 1175.17567444 C-679.24832508 1179.12794313 -683.0099541 1183.17755532 -686.6448822 1187.4067688 C-689.04257452 1190.17456101 -691.55750879 1192.82972407 -694.0625 1195.5 C-698.59651694 1200.3685575 -702.87242781 1205.38082164 -707.0390625 1210.5703125 C-709.20261772 1213.20591613 -711.4513956 1215.73173375 -713.75 1218.25 C-718.1242307 1223.06240925 -722.17827664 1228.06949875 -726.1875 1233.1875 C-726.97382812 1234.17878906 -727.76015625 1235.17007812 -728.5703125 1236.19140625 C-784.80526632 1307.16298319 -832.09439773 1385.96380384 -917.1875 1642.1875 C-917.4169632 1643.34258057 -917.4169632 1643.34258057 -917.65106201 1644.52099609 C-927.61462794 1694.98023442 -933.38337663 1746.20843476 -934.75 1797.625 C-934.77084656 1798.39384521 -934.79169312 1799.16269043 -934.81317139 1799.95483398 C-935.11087898 1811.03518335 -935.39583597 1822.10321714 -935.1875 1833.1875 C-935.16961426 1834.32832031 -935.15172852 1835.46914062 -935.13330078 1836.64453125 C-933.65103219 1923.46002886 -920.71148868 2010.00883033 -833.1875 2248.1875 C-832.86525452 2248.83199097 -832.54300903 2249.47648193 -832.21099854 2250.14050293 C-823.97560306 2266.57800485 -815.26484568 2282.6833696 -805.81787109 2298.46191406 C-804.27023492 2301.04918724 -802.73669524 2303.64425968 -801.20703125 2306.2421875 C-790.06936648 2325.08304442 -778.36155892 2343.59409034 -765.52832031 2361.32910156 C-764.22428773 2363.13651162 -762.93397743 2364.95284042 -761.6484375 2366.7734375 C-748.43261972 2385.46930299 -734.62612635 2403.86149956 -719.70703125 2421.234375 C-717.27933864 2424.07985657 -714.9143294 2426.96669283 -712.5625 2429.875 C-708.93681653 2434.32941113 -705.16320347 2438.61698601 -701.296875 2442.86328125 C-699.44123343 2444.90792335 -697.61993624 2446.97534149 -695.8125 2449.0625 C-691.55376002 2453.94352162 -687.17476269 2458.71334633 -682.77685547 2463.46875 C-681.69909722 2464.634252 -680.62264048 2465.80095862 -679.54736328 2466.96875 C-671.77974228 2475.39464397 -663.84127112 2483.63407632 -655.75 2491.75 C-654.92185791 2492.58273438 -654.09371582 2493.41546875 -653.24047852 2494.2734375 C-648.93847484 2498.56460926 -644.5711319 2502.70748976 -639.94311523 2506.64624023 C-638.10959585 2508.25589228 -636.39529731 2509.94572049 -634.6875 2511.6875 C-631.69877663 2514.72344925 -628.57043521 2517.53258659 -625.34375 2520.3125 C-622.98787042 2522.36109094 -620.6824254 2524.45953002 -618.375 2526.5625 C-614.08276382 2530.43661881 -609.65971326 2534.10767548 -605.1640625 2537.7421875 C-602.43533805 2539.98389551 -599.75767401 2542.27113911 -597.08984375 2544.58422852 C-591.11089113 2549.76735626 -585.02984032 2554.72477783 -578.71875 2559.5 C-576.1129509 2561.47227913 -573.53590325 2563.47767424 -570.96875 2565.5 C-561.69224922 2572.80219588 -552.27724142 2579.80962894 -542.57177734 2586.53027344 C-539.93153944 2588.3654091 -537.30340793 2590.21716804 -534.67578125 2592.0703125 C-523.4955732 2599.93487454 -512.20774463 2607.5303172 -500.57519531 2614.70898438 C-498.09170976 2616.24681551 -495.61946522 2617.8016149 -493.1484375 2619.359375 C-480.38387584 2627.37830787 -467.37645381 2634.89067908 -454.1875 2642.1875 C-453.27258789 2642.69716309 -452.35767578 2643.20682617 -451.41503906 2643.73193359 C-378.40913794 2684.32964183 -300.02052255 2714.83005203 -64.1875 2759.1875 C-63.49098328 2759.23863953 -62.79446655 2759.28977905 -62.07684326 2759.34246826 C-17.97655831 2762.56723972 26.72459794 2762.65586514 70.8125 2759.1875 C71.62388428 2759.12433594 72.43526855 2759.06117188 73.27124023 2758.99609375 C159.00818848 2752.24892915 243.50573661 2734.2151671 461.20361328 2641.67333984 C464.27903241 2639.92179569 467.38263487 2638.22705286 470.49243164 2636.53759766 C498.73650871 2621.139968 525.78268561 2603.06417662 551.8125 2584.1875 C552.57997559 2583.6311084 553.34745117 2583.0747168 554.13818359 2582.50146484 C564.53430855 2574.94348825 574.79380759 2567.23951922 584.8125 2559.1875 C585.4528418 2558.6733252 586.09318359 2558.15915039 586.75292969 2557.62939453 C595.33485922 2550.72527578 603.82512475 2543.72144933 612.19726562 2536.56445312 C613.86084543 2535.14628654 615.53145876 2533.73674683 617.203125 2532.328125 C625.2365824 2525.53423811 632.96892777 2518.46628869 640.61523438 2511.24121094 C642.80797198 2509.19173219 645.02239339 2507.16705292 647.23835754 2505.14276123 C654.46453668 2498.5262521 661.45617953 2491.69850864 668.37158203 2484.75878906 C670.20360995 2482.9213424 672.04100605 2481.0893835 673.87890625 2479.2578125 C679.18604543 2473.95367069 684.43756932 2468.65826203 689.30419922 2462.94091797 C691.98989851 2459.81875994 694.85499567 2456.86338552 697.6875 2453.875 C702.60290063 2448.65283366 707.25770096 2443.33850768 711.734375 2437.734375 C713.86968453 2435.1174167 716.09780363 2432.61907221 718.375 2430.125 C722.7492307 2425.31259075 726.80327664 2420.30550125 730.8125 2415.1875 C731.59882813 2414.19621094 732.38515625 2413.20492187 733.1953125 2412.18359375 C738.78131043 2405.13325344 744.27965041 2398.0153214 749.75 2390.875 C750.36939453 2390.0708667 750.98878906 2389.2667334 751.62695312 2388.43823242 C762.25225232 2374.52187511 772.05872098 2360.01258543 781.75 2345.4375 C782.27263428 2344.65213867 782.79526855 2343.86677734 783.33374023 2343.05761719 C826.21730331 2278.55906508 860.68399114 2209.17092019 923.29296875 2001.92578125 C930.14704693 1968.54860189 940.56563284 1936.14990928 954.8125 1905.1875 C955.24820313 1904.23246582 955.68390625 1903.27743164 956.1328125 1902.29345703 C978.29057382 1853.9529317 1009.62889058 1811.18029587 1047.14648438 1773.66821289 C1048.81671095 1771.9957835 1050.47872379 1770.31546331 1052.140625 1768.63476562 C1058.72288733 1762.01856942 1065.49767722 1755.99455512 1072.8125 1750.1875 C1073.91448582 1749.25290634 1075.01082374 1748.31154786 1076.09765625 1747.359375 C1102.32151494 1724.49187516 1132.87613986 1706.82285769 1163.8125 1691.1875 C1164.54903809 1690.81383301 1165.28557617 1690.44016602 1166.04443359 1690.05517578 C1219.44770343 1663.21865168 1282.38338773 1647.2327376 1342.2421875 1646.984375 C1343.95375786 1646.97385353 1343.95375786 1646.97385353 1345.6999054 1646.96311951 C1349.3624776 1646.94571816 1353.02488797 1646.93926702 1356.6875 1646.9375 C1357.94059967 1646.93682526 1359.19369934 1646.93615051 1360.48477173 1646.93545532 C1379.44417562 1646.9516738 1398.02854849 1647.40760536 1416.8125 1650.1875 C1417.99553711 1650.35910645 1419.17857422 1650.53071289 1420.39746094 1650.70751953 C1506.55760901 1663.57977663 1589.69751466 1700.21969084 1654.01171875 1759.6328125 C1656.15308799 1761.58602795 1658.31788912 1763.48341876 1660.515625 1765.37109375 C1665.51998975 1769.73716772 1670.19129755 1774.4201203 1674.875 1779.125 C1675.73416016 1779.98029297 1676.59332031 1780.83558594 1677.47851562 1781.71679688 C1682.46603237 1786.71193397 1687.2300821 1791.8202204 1691.8125 1797.1875 C1692.77340732 1798.28242063 1693.73559353 1799.37622059 1694.69921875 1800.46875 C1702.19653126 1809.05126942 1709.11379682 1817.97158906 1715.8125 1827.1875 C1716.30218262 1827.85620117 1716.79186523 1828.52490234 1717.29638672 1829.21386719 C1760.54969859 1888.45364876 1787.32538822 1957.80181105 1797.8125 2030.1875 C1797.97766113 2031.30882324 1798.14282227 2032.43014648 1798.31298828 2033.58544922 C1803.47989204 2070.56594654 1803.19572624 2110.26502368 1797.8125 2147.1875 C1797.54711426 2149.0447168 1797.54711426 2149.0447168 1797.27636719 2150.93945312 C1794.33648264 2170.99566034 1790.41228664 2190.87752276 1784.74336243 2210.34849548 C1781.44510707 2221.67895503 1778.60264961 2233.07306118 1775.91928101 2244.56323242 C1753.79654267 2339.01410443 1723.71447946 2431.3793251 1667.69213867 2565.21856689 C1666.80066117 2567.21399936 1665.91107736 2569.21026976 1665.02148438 2571.20654297 C1655.40465746 2592.75658546 1645.2589925 2614.02843293 1634.8125 2635.1875 C1634.22187775 2636.38518005 1634.22187775 2636.38518005 1633.61932373 2637.60705566 C1624.48597357 2656.12284319 1615.30311487 2674.57772942 1605.23828125 2692.609375 C1603.69818005 2695.39421553 1602.18985339 2698.19462267 1600.6875 2701 C1593.64188485 2714.15486868 1586.30053935 2727.09945698 1578.71630859 2739.95068359 C1576.69105165 2743.39398399 1574.68188462 2746.84630578 1572.67578125 2750.30078125 C1564.22565716 2764.83611276 1555.5760788 2779.21605966 1546.56835938 2793.41552734 C1544.90677595 2796.03866669 1543.25658714 2798.66860141 1541.609375 2801.30078125 C1521.95850767 2832.58407576 1501.1131044 2863.16467983 1479.37597656 2893.03125 C1477.80183401 2895.20220987 1476.23916111 2897.38098371 1474.6796875 2899.5625 C1466.28936976 2911.28411529 1457.59341009 2922.7564738 1448.8125 2934.1875 C1447.86172466 2935.42949271 1446.91117404 2936.67165751 1445.9609375 2937.9140625 C1436.27214312 2950.56759048 1426.37116607 2963.03702084 1416.2890625 2975.37890625 C1414.98202459 2976.9798548 1413.67826644 2978.58347976 1412.375 2980.1875 C1407.9466241 2985.6280761 1403.44664335 2991.00205996 1398.90234375 2996.34570312 C1395.9524459 2999.82030269 1393.0556728 3003.33225694 1390.1875 3006.875 C1386.60732965 3011.27695323 1382.86223839 3015.48864589 1379.0390625 3019.6796875 C1376.83389243 3022.16340536 1374.75738996 3024.71544705 1372.6875 3027.3125 C1368.16004877 3032.91601799 1363.26899907 3038.13690933 1358.30419922 3043.35400391 C1354.61115682 3047.23879103 1351.03172635 3051.19489986 1347.51855469 3055.24291992 C1344.8292604 3058.30820742 1342.04285703 3061.27927205 1339.25 3064.25 C1338.01286397 3065.56886329 1336.77588918 3066.88787784 1335.5390625 3068.20703125 C1334.91676758 3068.87041504 1334.29447266 3069.53379883 1333.65332031 3070.21728516 C1331.91413452 3072.07872141 1330.18549503 3073.94923412 1328.4609375 3075.82421875 C1320.99700164 3083.91983651 1313.31855263 3091.7649561 1305.47192383 3099.49121094 C1301.25618873 3103.66019852 1297.20801708 3107.89537149 1293.36083984 3112.40820312 C1289.64416075 3116.67927806 1285.5916776 3120.5553693 1281.27734375 3124.21484375 C1275.85722323 3128.9350707 1270.85515369 3134.07285737 1265.8125 3139.1875 C1260.20443068 3144.87563014 1254.62179503 3150.53706966 1248.51757812 3155.70117188 C1246.69668429 3157.28845734 1245.00313548 3158.96285532 1243.3125 3160.6875 C1240.41250647 3163.6329073 1237.37623569 3166.34213709 1234.24609375 3169.0390625 C1231.04654235 3171.86370659 1227.93212592 3174.77516366 1224.8125 3177.6875 C1219.88636934 3182.27838816 1214.93037693 3186.81000309 1209.8125 3191.1875 C1208.79029697 3192.06372321 1207.76816854 3192.94003345 1206.74609375 3193.81640625 C1204.97789169 3195.33208009 1203.20931566 3196.84730802 1201.43969727 3198.36132812 C1197.66091084 3201.59586135 1193.89550732 3204.84517391 1190.140625 3208.10742188 C1179.93370603 3216.97520995 1169.71611993 3225.77116412 1159.03613281 3234.06738281 C1155.10215302 3237.13584356 1151.281271 3240.30847913 1147.5 3243.5625 C1141.19246113 3248.9747941 1134.61143232 3253.99418006 1127.98828125 3259.01171875 C1124.31152961 3261.7983535 1120.67914803 3264.63603626 1117.0625 3267.5 C1103.82366821 3277.95047952 1090.41916769 3288.18192143 1076.63037109 3297.89648438 C1073.82097307 3299.89166256 1071.03667657 3301.92113834 1068.24902344 3303.9465332 C1059.89582506 3310.01204217 1051.45922 3315.93552297 1042.92675781 3321.74560547 C1040.65368733 3323.29580804 1038.38509718 3324.85241412 1036.1171875 3326.41015625 C1021.59862233 3336.37768997 1006.97558463 3346.16251002 992.15820312 3355.68066406 C990.55977783 3356.70746266 988.96215335 3357.73550871 987.36523438 3358.76464844 C956.49064567 3378.64655256 924.85922606 3397.26314558 892.8125 3415.1875 C891.72404785 3415.79819336 890.6355957 3416.40888672 889.51416016 3417.03808594 C870.9591853 3427.43351786 852.19080301 3437.35671241 833.21844482 3446.96826172 C830.67493738 3448.25721133 828.13264196 3449.54853395 825.59033203 3450.83984375 C803.13002108 3462.23680739 780.58266416 3473.30884289 757.55761719 3483.52001953 C753.89548446 3485.1462246 750.2477212 3486.80310767 746.6015625 3488.46484375 C656.68333275 3529.35642038 562.57057063 3562.04075486 451.8125 3591.1875 C450.91432556 3591.41934998 450.01615112 3591.65119995 449.09075928 3591.89007568 C351.98874727 3616.89773388 252.19915321 3633.27399337 69.8125 3646.1875 C68.61149658 3646.2313382 68.61149658 3646.2313382 67.38623047 3646.27606201 C-36.84095735 3650.02143005 -141.36834023 3644.48204599 -709.1875 3502.1875 C-710.20662476 3501.75014526 -710.20662476 3501.75014526 -711.24633789 3501.30395508 C-721.25825158 3497.00256682 -731.23266288 3492.61921232 -741.1875 3488.1875 C-741.84133667 3487.89699768 -742.49517334 3487.60649536 -743.16882324 3487.30718994 C-766.02276984 3477.14980232 -788.54223373 3466.35296924 -810.96704102 3455.28308105 C-813.07161595 3454.24467754 -815.17722099 3453.20839753 -817.28320312 3452.17285156 C-830.89357949 3445.47598451 -844.36775504 3438.58769774 -857.640625 3431.2421875 C-861.5710018 3429.06760537 -865.52014622 3426.93255963 -869.484375 3424.8203125 C-882.18965082 3418.05017486 -894.72511992 3411.06444459 -907.125 3403.75 C-911.27453206 3401.30242445 -915.44122548 3398.88857319 -919.625 3396.5 C-933.36495456 3388.65459865 -946.8658837 3380.51355807 -960.23291016 3372.04931641 C-963.17056427 3370.19817195 -966.11986634 3368.36732669 -969.07421875 3366.54296875 C-982.63409106 3358.1595861 -995.94679923 3349.44846495 -1009.17247009 3340.55197144 C-1013.00471704 3337.97571247 -1016.85020714 3335.42030327 -1020.703125 3332.875 C-1030.50940631 3326.39187835 -1040.21773764 3319.8516687 -1049.63671875 3312.81640625 C-1053.51550183 3309.92388333 -1057.47441039 3307.15029698 -1061.4375 3304.375 C-1075.98040011 3294.16020536 -1090.19342058 3283.50777959 -1104.27099609 3272.66308594 C-1106.0600575 3271.2856226 -1107.85169802 3269.91161115 -1109.64453125 3268.5390625 C-1122.38492026 3258.77872564 -1134.94965117 3248.81753848 -1147.37890625 3238.6640625 C-1148.9798548 3237.35702459 -1150.58347976 3236.05326644 -1152.1875 3234.75 C-1157.6280761 3230.3216241 -1163.00205996 3225.82164335 -1168.34570312 3221.27734375 C-1171.82030269 3218.3274459 -1175.33225694 3215.4306728 -1178.875 3212.5625 C-1183.27695323 3208.98232965 -1187.48864589 3205.23723839 -1191.6796875 3201.4140625 C-1194.16340536 3199.20889243 -1196.71544705 3197.13238996 -1199.3125 3195.0625 C-1204.91601799 3190.53504877 -1210.13690933 3185.64399907 -1215.35400391 3180.67919922 C-1219.26127046 3176.96478692 -1223.23834839 3173.36031073 -1227.30981445 3169.82666016 C-1229.98083929 3167.49493987 -1232.58873195 3165.09914993 -1235.1875 3162.6875 C-1235.73092041 3162.18395996 -1236.27434082 3161.68041992 -1236.83422852 3161.16162109 C-1238.00490234 3160.07559218 -1239.17488807 3158.98882114 -1240.34423828 3157.90136719 C-1241.59943288 3156.73428559 -1242.85565935 3155.56831302 -1244.11279297 3154.40332031 C-1252.001672 3147.08920525 -1259.79738969 3139.71061564 -1267.32006836 3132.01806641 C-1270.10731146 3129.18577782 -1272.95040388 3126.49278945 -1275.96484375 3123.90234375 C-1280.95900269 3119.5845892 -1285.59428002 3114.92677071 -1290.25 3110.25 C-1291.10916016 3109.39470703 -1291.96832031 3108.53941406 -1292.85351562 3107.65820312 C-1297.22286876 3103.28217412 -1301.41825582 3098.83596146 -1305.44702148 3094.14624023 C-1308.69133274 3090.4950817 -1312.20412537 3087.10856024 -1315.6875 3083.6875 C-1320.52595773 3078.93559786 -1325.2146412 3074.14594193 -1329.61328125 3068.98046875 C-1331.23426564 3067.13423591 -1332.93329129 3065.40690809 -1334.6875 3063.6875 C-1337.65465801 3060.76619212 -1340.38808971 3057.70758327 -1343.10546875 3054.5546875 C-1345.747964 3051.55027451 -1348.46590173 3048.62015928 -1351.1875 3045.6875 C-1356.57182187 3039.87500144 -1361.81470271 3033.96597303 -1366.9609375 3027.94140625 C-1367.9947254 3026.7317142 -1369.02858147 3025.5220804 -1370.0625 3024.3125 C-1370.84234253 3023.39936035 -1370.84234253 3023.39936035 -1371.63793945 3022.46777344 C-1374.66681717 3018.93068841 -1377.73921743 3015.44331992 -1380.875 3012 C-1384.67257249 3007.81380699 -1388.25815944 3003.48730986 -1391.8125 2999.09375 C-1394.35415169 2995.98357096 -1396.95350854 2992.92854413 -1399.5625 2989.875 C-1403.79032563 2984.91228377 -1407.85396162 2979.84350466 -1411.85327148 2974.69555664 C-1415.5208527 2969.99133092 -1419.30995783 2965.39752205 -1423.125 2960.8125 C-1428.14846998 2954.75885416 -1432.97092962 2948.59602033 -1437.65039062 2942.2734375 C-1441.39343483 2937.2200806 -1445.24164301 2932.25859187 -1449.125 2927.3125 C-1455.49390623 2919.17459881 -1461.57175074 2910.8522869 -1467.57421875 2902.44189453 C-1469.74067746 2899.41449142 -1471.92602793 2896.40095652 -1474.11108398 2893.38696289 C-1494.28282952 2865.54676888 -1513.66195905 2837.15043812 -1532.1875 2808.1875 C-1532.63738281 2807.4857666 -1533.08726562 2806.7840332 -1533.55078125 2806.06103516 C-1562.62566891 2760.63664201 -1589.42782252 2713.73059071 -1614.2421875 2665.85546875 C-1616.14640603 2662.1817937 -1618.06751568 2658.51802379 -1620.0078125 2654.86328125 C-1634.49510236 2627.50696263 -1647.64557288 2599.49150265 -1660.27075195 2571.23522949 C-1661.1842893 2569.19467171 -1662.10215907 2567.15612009 -1663.02148438 2565.11816406 C-1683.94430339 2518.71400266 -1702.2528813 2471.17903296 -1719.1875 2423.1875 C-1719.60452179 2422.00698059 -1719.60452179 2422.00698059 -1720.02996826 2420.8026123 C-1754.90885482 2321.92933672 -1780.1581943 2219.81484782 -1816.08984375 1957.70703125 C-1816.18115318 1956.52157967 -1816.18115318 1956.52157967 -1816.27430725 1955.31217957 C-1819.3358058 1914.14873283 -1820.52977095 1872.99930101 -1820.44824219 1831.72924805 C-1820.43685557 1825.91760225 -1820.44363927 1820.10613991 -1820.45512009 1814.29450035 C-1820.50602424 1783.87719844 -1819.8425331 1753.56078872 -1818.1875 1723.1875 C-1818.14862167 1722.47159321 -1818.10974335 1721.75568642 -1818.06968689 1721.01808548 C-1817.61046704 1712.65132967 -1817.05792255 1704.29372251 -1816.4375 1695.9375 C-1816.31394638 1694.24143616 -1816.31394638 1694.24143616 -1816.18789673 1692.5111084 C-1812.84015705 1646.89350503 -1807.90544434 1601.43181137 -1801.1875 1556.1875 C-1800.95027222 1554.58787415 -1800.95027222 1554.58787415 -1800.70825195 1552.95593262 C-1792.23763331 1496.17371138 -1781.04269463 1439.69868696 -1766.91351318 1384.05194092 C-1766.18572895 1381.18051243 -1765.46443598 1378.30751967 -1764.74462891 1375.43408203 C-1741.86915961 1284.3014919 -1712.04991375 1194.29807081 -1671.02740479 1100.09655762 C-1670.20713029 1098.23211859 -1669.38915673 1096.36668636 -1668.57177734 1094.50097656 C-1648.1137783 1047.87338689 -1626.47590718 1001.31475907 -1601.64453125 956.828125 C-1599.41713567 952.79134374 -1597.25941668 948.71791057 -1595.09204102 944.64868164 C-1588.37748521 932.06061674 -1581.34910803 919.69390066 -1574.08837891 907.4140625 C-1572.02919848 903.91879811 -1569.98759812 900.41366593 -1567.94921875 896.90625 C-1560.88892456 884.7692286 -1553.77289199 872.69014815 -1546.18554688 860.87207031 C-1543.81992551 857.18394967 -1541.48120218 853.47990303 -1539.15261841 849.76832581 C-1532.45712994 839.10742599 -1525.59287455 828.56245355 -1518.66113281 818.05395508 C-1516.81752295 815.25761867 -1514.9789449 812.45801915 -1513.140625 809.65820312 C-1501.90611728 792.58664084 -1490.19941197 775.87476733 -1478.19140625 759.33984375 C-1476.34995434 756.80125005 -1474.52117116 754.25510673 -1472.71484375 751.69140625 C-1465.72037774 741.76865248 -1458.342034 732.14977066 -1450.96142578 722.51220703 C-1448.80770122 719.68977856 -1446.68188304 716.84829234 -1444.5625 714 C-1434.43574422 700.46557165 -1423.90276265 687.2584456 -1413.1875 674.1875 C-1412.36378906 673.17945313 -1411.54007813 672.17140625 -1410.69140625 671.1328125 C-1409.22405125 669.33740066 -1407.75536896 667.54307249 -1406.28515625 665.75 C-1404.87232406 664.02408209 -1403.46354291 662.29484098 -1402.05859375 660.5625 C-1396.4062181 653.60572997 -1390.59996632 646.79278891 -1384.74902344 640.00341797 C-1383.1849147 638.18449352 -1381.62668924 636.36069921 -1380.0703125 634.53515625 C-1374.85625232 628.4226607 -1369.59795643 622.36527424 -1364.19921875 616.4140625 C-1362.34015331 614.35645609 -1360.50821642 612.27903237 -1358.6875 610.1875 C-1351.92653466 602.43409939 -1344.98075016 594.84677822 -1338.01953125 587.2734375 C-1336.11493522 585.20084701 -1334.21704887 583.12240265 -1332.32421875 581.0390625 C-1327.70162771 575.95850578 -1323.02533818 570.97012726 -1318.1231842 566.15562439 C-1316.38836237 564.39172863 -1314.78524128 562.58603304 -1313.18920898 560.69750977 C-1308.20037453 554.96151578 -1302.78803728 549.64388392 -1297.41015625 544.27734375 C-1296.27332754 543.13983967 -1295.13664717 542.00218733 -1294.00010681 540.86439514 C-1291.62905079 538.49187314 -1289.25621727 536.12114759 -1286.88208008 533.75170898 C-1283.85851539 530.73384088 -1280.83946367 527.71150424 -1277.82174015 524.68779659 C-1275.47880167 522.34122268 -1273.1334596 519.99706265 -1270.78741264 517.65359688 C-1269.67405516 516.54090043 -1268.56142319 515.4274775 -1267.44957161 514.31327629 C-1262.03052886 508.8852934 -1256.60843522 503.51163426 -1250.75987244 498.53968811 C-1248.61943007 496.69897871 -1246.65239005 494.71284821 -1244.6875 492.6875 C-1241.44493741 489.40646632 -1238.11702978 486.33290004 -1234.6171875 483.33203125 C-1231.24205732 480.35301764 -1227.96984907 477.26803736 -1224.6875 474.1875 C-1220.20818309 469.98769596 -1215.71894369 465.82054641 -1211.0625 461.81640625 C-1208.79998819 459.85084911 -1206.59059317 457.83076691 -1204.375 455.8125 C-1200.91219918 452.68327173 -1197.38070997 449.68249651 -1193.75 446.75 C-1189.94662497 443.67413412 -1186.28667348 440.49996834 -1182.6875 437.1875 C-1178.27109856 433.12766355 -1173.72586478 429.29426179 -1169.05859375 425.52734375 C-1165.95762849 423.00016253 -1162.915879 420.41120221 -1159.875 417.8125 C-1154.88726319 413.56423492 -1149.79628203 409.47381538 -1144.62524414 405.45141602 C-1140.13188848 401.95041249 -1135.71666896 398.36226396 -1131.3125 394.75 C-1125.42930546 389.93815198 -1119.43738798 385.30907146 -1113.33300781 380.78198242 C-1108.17933363 376.95438149 -1103.11384821 373.02385981 -1098.0625 369.0625 C-1091.18470724 363.68298462 -1084.19002756 358.52893317 -1077.04931641 353.50634766 C-1073.47017002 350.97100163 -1069.92619422 348.3867661 -1066.375 345.8125 C-1033.10734474 321.75515125 -998.97690449 298.98121562 -964.1875 277.1875 C-963.35202637 276.66397949 -962.51655273 276.14045898 -961.65576172 275.60107422 C-948.29387459 267.24322018 -934.80005336 259.13004992 -921.1875 251.1875 C-920.1862207 250.60242676 -919.18494141 250.01735352 -918.15332031 249.41455078 C-894.32241735 235.51132251 -870.22874718 222.15029897 -845.71044922 209.49755859 C-843.42520444 208.31092965 -841.14969055 207.1085458 -838.87890625 205.89453125 C-813.0728709 192.10561691 -786.7849832 179.11993389 -760.12646484 167.06518555 C-758.04285117 166.12202373 -755.96081094 165.17544349 -753.87890625 164.22851562 C-664.99110441 123.83533562 -573.01935368 90.18183086 -100.625 2.5 C-99.56321533 2.43897095 -98.50143066 2.37794189 -97.4074707 2.31506348 C-90.00271234 1.89573563 -82.59653622 1.52271458 -75.1875 1.1875 C-74.09853424 1.1380423 -73.00956848 1.08858459 -71.88760376 1.03762817 C-47.93148967 -0.00479021 -23.97430302 -0.01396791 0 0 Z " fill="#D8FF36" transform="translate(1820.1875,-0.1875)"/>
<path d="M0 0 C0.94101562 0.75796875 1.88203125 1.5159375 2.8515625 2.296875 C5.5813472 4.51531674 8.29461986 6.75186721 11 9 C11.50885742 9.42249023 12.01771484 9.84498047 12.54199219 10.28027344 C19.54770308 16.11055807 26.37672894 22.0893399 33.05078125 28.296875 C35.2257558 30.31298833 37.45229333 32.25771945 39.69970703 34.19262695 C43.88124298 37.84700696 47.83423054 41.68937051 51.75390625 45.62109375 C52.45845444 46.32468521 53.16300262 47.02827667 53.88890076 47.75318909 C55.36653367 49.23014648 56.84292457 50.70834742 58.31811523 52.18774414 C60.55666481 54.43165085 62.80050473 56.67016704 65.04492188 58.90820312 C66.48990404 60.35384618 67.93457592 61.79979945 69.37890625 63.24609375 C70.36982018 64.23397133 70.36982018 64.23397133 71.38075256 65.24180603 C75.78475322 69.66769122 79.93314256 74.26394474 84 79 C85.06936185 80.2260902 86.13954204 81.45146769 87.2109375 82.67578125 C148.70053022 153.26005139 194.84665226 236.1179028 253 511 C253.02191406 511.94584961 253.04382812 512.89169922 253.06640625 513.86621094 C254.89346547 602.5699362 237.65932373 692.57191558 127.42333984 914.10546875 C125.82694932 916.23033847 124.26549803 918.3784184 122.70703125 920.53125 C115.34854659 930.67661767 107.69450502 940.48869648 99.62109375 950.07470703 C98.09514195 951.88700461 96.57772697 953.70607809 95.0625 955.52734375 C89.40661278 962.29992902 83.5512735 968.85046279 77.54370117 975.31274414 C76.39644962 976.56668301 75.26336027 977.83360921 74.13793945 979.10717773 C68.07300912 985.95485944 61.70188982 992.45161673 55.22485352 998.90551758 C53.4332405 1000.6917467 51.64706945 1002.48329347 49.86132812 1004.27539062 C44.07443595 1010.06564514 38.23916917 1015.6936865 32 1021 C30.22429779 1022.61967817 28.45291693 1024.24411718 26.6875 1025.875 C22.25368689 1029.91402153 17.71945416 1033.77506878 13.05078125 1037.5390625 C10.82711326 1039.33280236 8.61801522 1041.13872383 6.41796875 1042.9609375 C-21.34216383 1065.88907752 -51.61214003 1086.36357357 -83 1104 C-83.76296387 1104.43376953 -84.52592773 1104.86753906 -85.31201172 1105.31445312 C-90.50967607 1108.26926681 -95.7448633 1111.1489295 -101 1114 C-101.75410156 1114.4139502 -102.50820313 1114.82790039 -103.28515625 1115.25439453 C-169.14423564 1151.3037195 -243.38475788 1174.56332495 -366 1191 C-367.77068848 1191.15686279 -367.77068848 1191.15686279 -369.57714844 1191.31689453 C-384.2224228 1192.43255389 -398.94529941 1192.24595621 -413.625 1192.25 C-414.35958309 1192.25044186 -415.09416618 1192.25088371 -415.85100937 1192.25133896 C-439.35577124 1192.25874453 -462.63396703 1191.75257441 -486 1189 C-487.51497331 1188.82665447 -489.02994728 1188.65331475 -490.54492188 1188.47998047 C-578.6059988 1178.24733567 -664.93589315 1151.28044695 -769.55200195 1091.49316406 C-770.45523193 1090.93467773 -771.35846191 1090.37619141 -772.2890625 1089.80078125 C-773.08006348 1089.30747314 -773.87106445 1088.81416504 -774.68603516 1088.3059082 C-777.83151675 1086.53072556 -780.83151568 1085.18779212 -784.40625 1084.61328125 C-787.85694323 1083.79737939 -790.53862423 1082.05866804 -793.5 1080.1875 C-794.84782079 1079.3601232 -796.19684684 1078.53470761 -797.546875 1077.7109375 C-798.26810547 1077.26975586 -798.98933594 1076.82857422 -799.73242188 1076.37402344 C-855.50424904 1042.57946667 -916.12683971 1017.10079567 -979 1000 C-979.97178192 999.73376831 -979.97178192 999.73376831 -980.9631958 999.4621582 C-1016.25228325 989.8101003 -1052.36309987 983.22396184 -1088.72198486 979.25 C-1090.93113213 979.00755788 -1093.13911019 978.75604845 -1095.34716797 978.50390625 C-1141.71126103 973.3263558 -1190.67472756 973.658834 -1237 979 C-1237.77531067 979.08721313 -1238.55062134 979.17442627 -1239.34942627 979.26428223 C-1262.08753161 981.82620885 -1284.60162804 985.30981434 -1307 990 C-1308.03903473 990.21689484 -1308.03903473 990.21689484 -1309.09906006 990.43817139 C-1391.68796311 1007.75615069 -1469.91372715 1040.14756963 -1569 1103 C-1569.70253906 1103.49677246 -1570.40507812 1103.99354492 -1571.12890625 1104.50537109 C-1595.36701786 1121.67403348 -1618.56740317 1140.25852031 -1640.33276367 1160.47631836 C-1641.56664219 1161.60395576 -1642.81368674 1162.71722417 -1644.06762695 1163.82250977 C-1651.23442848 1170.16081341 -1658.00776058 1176.85499968 -1664.76000977 1183.62963867 C-1666.69109547 1185.56610549 -1668.62749882 1187.49713956 -1670.56445312 1189.42773438 C-1676.59084954 1195.45088767 -1682.48929263 1201.49544492 -1688 1208 C-1689.61967817 1209.77570221 -1691.24411718 1211.54708307 -1692.875 1213.3125 C-1697.79624205 1218.71476571 -1702.4139906 1224.31305671 -1707 1230 C-1707.97407866 1231.18326549 -1708.94941 1232.36550053 -1709.92578125 1233.546875 C-1768.51903167 1304.64644633 -1812.65223877 1387.98328843 -1846 1499 C-1846.31098633 1500.10811035 -1846.62197266 1501.2162207 -1846.94238281 1502.35791016 C-1851.53425665 1518.89427452 -1854.70484344 1535.64772057 -1857.875 1552.5 C-1874.96843029 1643.2497398 -1908.39266703 1731.65138555 -1961 1808 C-1961.81188322 1809.20005748 -1962.62303103 1810.40061271 -1963.43359375 1811.6015625 C-1977.3410962 1832.12483123 -1992.49527999 1851.51873281 -2008.59667969 1870.35400391 C-2010.09377558 1872.10999217 -2011.58230066 1873.87302823 -2013.0703125 1875.63671875 C-2017.89000041 1881.33052141 -2022.71051478 1886.90190497 -2028.08642578 1892.08544922 C-2029.87017919 1893.87011294 -2031.50769388 1895.70675772 -2033.140625 1897.62890625 C-2037.3618014 1902.48765325 -2041.87716951 1907.02390262 -2046.4375 1911.5625 C-2047.64889648 1912.77969727 -2047.64889648 1912.77969727 -2048.88476562 1914.02148438 C-2053.18344574 1918.31323672 -2057.55629283 1922.44663791 -2062.16186523 1926.40698242 C-2064.94860841 1928.82211049 -2067.62311755 1931.35274952 -2070.3125 1933.875 C-2075.05499316 1938.28226211 -2079.90049655 1942.49064391 -2084.953125 1946.54296875 C-2087.25528658 1948.39945546 -2089.53182341 1950.27495624 -2091.796875 1952.17578125 C-2102.21844733 1960.90133488 -2112.95253504 1969.08415182 -2124 1977 C-2124.81903809 1977.58813477 -2125.63807617 1978.17626953 -2126.48193359 1978.78222656 C-2201.89754373 2032.75368725 -2288.50520078 2070.31948025 -2622.34375 2094.6262207 C-2653.42647669 2089.45534263 -2683.92672342 2082.42451957 -2714 2073 C-2714.66666687 2072.79117188 -2715.33333374 2072.58234375 -2716.02020264 2072.3671875 C-2795.52720665 2047.36513389 -2872.36527051 2007.91200771 -2942.92578125 1948.60546875 C-2945.69699155 1946.24135813 -2948.52927189 1943.96156042 -2951.375 1941.6875 C-2957.2804857 1936.88230858 -2962.7883627 1931.68520712 -2968.3203125 1926.4609375 C-2970.52396483 1924.37989952 -2972.73905764 1922.31642173 -2974.9921875 1920.2890625 C-2981.27513601 1914.63266841 -2987.32504223 1908.77990437 -2993.3125 1902.8125 C-2994.06571533 1902.06387695 -2994.81893066 1901.31525391 -2995.5949707 1900.54394531 C-2999.6844899 1896.44311034 -3003.60112817 1892.25234408 -3007.38061523 1887.86450195 C-3009.80686472 1885.0710047 -3012.3442708 1882.3859512 -3014.875 1879.6875 C-3020.17363208 1873.98527244 -3025.13099691 1868.0743589 -3030 1862 C-3031.00636432 1860.77224903 -3032.01427721 1859.54576634 -3033.0234375 1858.3203125 C-3084.99360685 1795.09645234 -3123.98532365 1722.46122154 -3183 1477 C-3183.05639648 1476.18160645 -3183.11279297 1475.36321289 -3183.17089844 1474.52001953 C-3188.29281111 1398.37324092 -3179.0626975 1320.26968331 -3093 1097 C-3092.50000488 1096.13922852 -3092.00000977 1095.27845703 -3091.48486328 1094.39160156 C-3073.26254496 1063.13789239 -3052.05146992 1033.84898396 -3029 1006 C-3028.51789063 1005.41734375 -3028.03578125 1004.8346875 -3027.5390625 1004.234375 C-3021.83511693 997.3644295 -3015.96905716 990.67578383 -3009.89526367 984.13061523 C-3007.21462741 981.23924899 -3004.56725078 978.31856862 -3001.91796875 975.3984375 C-2996.54943267 969.51956743 -2990.99624777 963.84257979 -2985.35571289 958.2253418 C-2983.79910611 956.67415273 -2982.24799829 955.11760608 -2980.69726562 953.56054688 C-2975.83408533 948.6941335 -2970.9279038 943.92611944 -2965.6965332 939.45141602 C-2963.30333789 937.40399248 -2961.00071905 935.26193953 -2958.6875 933.125 C-2953.28529859 928.20381653 -2947.68770102 923.58498347 -2942 919 C-2940.76994984 917.99065906 -2939.5408379 916.98017402 -2938.3125 915.96875 C-2878.28926798 866.64456801 -2809.24862362 828.64601687 -2736 803 C-2734.89688477 802.6086084 -2733.79376953 802.2172168 -2732.65722656 801.81396484 C-2681.58347901 783.76667705 -2627.93082056 772.68521559 -2574 768 C-2572.90059082 767.89703613 -2571.80118164 767.79407227 -2570.66845703 767.68798828 C-2533.49882733 764.2923503 -2495.14127248 764.36489674 -2458 768 C-2457.3385498 768.06316406 -2456.67709961 768.12632812 -2455.99560547 768.19140625 C-2374.16209523 776.02346634 -2295.72910605 798.07502968 -2175.75488281 858.34912109 C-2173.12573264 859.92465401 -2170.48387451 861.47583382 -2167.8359375 863.01953125 C-2150.32981745 873.27790549 -2133.73304693 884.87023459 -2117.3359375 896.8046875 C-2116.65402344 897.300896 -2115.97210937 897.79710449 -2115.26953125 898.30834961 C-2113.5923966 899.55844277 -2111.93654316 900.83720371 -2110.29296875 902.13110352 C-2103.01335245 907.79937146 -2095.53820368 912.17256887 -2087.25 916.1875 C-2085.94559148 916.82892555 -2084.64123068 917.47044814 -2083.33691406 918.11206055 C-2060.44092553 929.29937646 -2036.96531275 939.33833771 -2013 948 C-2012.32084534 948.24578796 -2011.64169067 948.49157593 -2010.94195557 948.74481201 C-1958.08852863 967.82708988 -1903.42748453 980.95453325 -1847.5625 987.25 C-1846.88582275 987.3272229 -1846.20914551 987.4044458 -1845.51196289 987.48400879 C-1820.97352813 990.24003938 -1796.41793473 991.38643836 -1771.73174286 991.31805801 C-1769.64523745 991.31238509 -1767.55874029 991.30958475 -1765.472229 991.30697632 C-1742.54740082 991.26541633 -1719.79656471 990.54865412 -1697 988 C-1696.21332947 987.91278687 -1695.42665894 987.82557373 -1694.6161499 987.73571777 C-1605.36628027 977.73951692 -1520.78799289 951.13814929 -1331 839 C-1330.05898437 838.24203125 -1329.11796875 837.4840625 -1328.1484375 836.703125 C-1318.40777808 828.78708478 -1308.7865727 820.72455822 -1299.51171875 812.265625 C-1297.43386746 810.3913579 -1295.33519741 808.54955499 -1293.22265625 806.71484375 C-1288.97647163 803.00618221 -1284.84976028 799.1818088 -1280.75 795.3125 C-1280.01346191 794.61769531 -1279.27692383 793.92289063 -1278.51806641 793.20703125 C-1266.33934144 781.68003223 -1266.33934144 781.68003223 -1255.03125 769.3125 C-1252.73944977 766.70337358 -1250.36630732 764.18250983 -1247.9831543 761.65698242 C-1242.49451259 755.83949817 -1237.18551683 749.9728848 -1232.19140625 743.71875 C-1230.21269799 741.263882 -1228.1816974 738.8637926 -1226.12451172 736.47460938 C-1219.05912857 728.25215992 -1212.50084833 719.67213168 -1206 711 C-1205.42314453 710.23349121 -1204.84628906 709.46698242 -1204.25195312 708.67724609 C-1195.76196763 697.37524606 -1187.67421317 685.87108851 -1180 674 C-1179.51321777 673.24783203 -1179.02643555 672.49566406 -1178.52490234 671.72070312 C-1131.9429403 599.46110599 -1097.43746974 519.38049753 -1075 412 C-1064.25173406 356.53851109 -1049.36020008 302.60994103 -1026 251 C-1025.56143677 250.0297287 -1025.56143677 250.0297287 -1025.11401367 249.03985596 C-1017.49208009 232.2074914 -1009.57859042 215.61629175 -1000.44287109 199.54150391 C-998.97501233 196.95598618 -997.5274629 194.3598303 -996.08203125 191.76171875 C-971.16110665 147.23616824 -940.30608584 105.8647219 -905.48242188 68.59570312 C-904.02447183 67.02634188 -902.58045584 65.44536151 -901.140625 63.859375 C-895.48292689 57.63994006 -889.68409711 51.5818569 -883.75 45.625 C-883.10063477 44.97104248 -882.45126953 44.31708496 -881.78222656 43.64331055 C-877.94839138 39.82164472 -873.99895326 36.19400895 -869.90185547 32.65673828 C-867.09870906 30.21487031 -864.39859263 27.667933 -861.6875 25.125 C-856.86898289 20.64257726 -851.92817067 16.3856427 -846.79296875 12.265625 C-844.2972517 10.24112726 -841.85294237 8.16733747 -839.41918945 6.0690918 C-832.22626618 -0.11610085 -824.74678007 -5.84855327 -817.09912109 -11.45849609 C-815.02511271 -12.98155831 -812.95981191 -14.51591447 -810.89453125 -16.05078125 C-793.92233843 -28.5717022 -776.18464711 -40.33096546 -757.92041016 -50.88818359 C-755.7572829 -52.14052042 -753.60383371 -53.40885874 -751.44921875 -54.67578125 C-698.64647392 -85.50290728 -641.3315819 -109.12794585 -582 -124 C-580.80036621 -124.30099609 -579.60073242 -124.60199219 -578.36474609 -124.91210938 C-537.58729647 -135.01625618 -495.98840322 -141.82545337 -454 -144 C-452.26580811 -144.0925708 -452.26580811 -144.0925708 -450.49658203 -144.18701172 C-364.95334252 -148.46587616 -277.92364392 -136.60632858 0 0 Z " fill="#808080" transform="translate(4343,387)"/>
</svg>
