<svg width="256" height="64" viewBox="0 0 256 64" fill="none" xmlns="http://www.w3.org/2000/svg">
  <rect x="1" y="1" width="62" height="62" rx="12" fill="#234234" stroke="#808080" stroke-width="2"/>
  <circle cx="32" cy="32" r="18" fill="#D9FF35" stroke="#FFFFFF" stroke-width="2"/>
  <path d="M24 32H40" stroke="#234234" stroke-width="4" stroke-linecap="round"/>
  <path d="M32 24V40" stroke="#234234" stroke-width="4" stroke-linecap="round"/>
  <path d="M84 18H94.5L108 46H98.5L95.8 40.2H82.6L79.9 46H70.8L84 18ZM92.7 33.5L89.2 25.7L85.7 33.5H92.7Z" fill="#FFFFFF"/>
  <path d="M113 18H121.9L132.7 34.5V18H141.2V46H132.3L121.5 29.5V46H113V18Z" fill="#FFFFFF"/>
  <path d="M146.6 32C146.6 23.7 153.2 17.3 161.9 17.3C167.8 17.3 172.5 20.2 175 24.6L167.3 28.5C166.2 26.4 164.2 25.1 161.8 25.1C157.8 25.1 155 28.1 155 32C155 35.9 157.8 38.9 162 38.9C164.8 38.9 167.2 37.5 168.2 35.1H161.1V28.3H176.8C176.9 29.2 177 30 177 31C177 40.4 170.8 46.7 161.9 46.7C153.1 46.7 146.6 40.3 146.6 32Z" fill="#D9FF35"/>
  <path d="M183.2 18H192.2L203 34.5V18H211.5V46H202.6L191.8 29.5V46H183.2V18Z" fill="#808080"/>
  <path d="M216.5 32C216.5 23.7 223.1 17.3 231.8 17.3C237.7 17.3 242.4 20.2 244.9 24.6L237.2 28.5C236.1 26.4 234.1 25.1 231.7 25.1C227.7 25.1 224.9 28.1 224.9 32C224.9 35.9 227.7 38.9 231.9 38.9C234.7 38.9 237.1 37.5 238.1 35.1H231V28.3H246.7C246.8 29.2 246.9 30 246.9 31C246.9 40.4 240.7 46.7 231.8 46.7C223 46.7 216.5 40.3 216.5 32Z" fill="#FFFFFF"/>
</svg>
